<svg width="15" height="25" viewBox="0 0 15 25" fill="none" xmlns="http://www.w3.org/2000/svg">
<g clip-path="url(#clip0_130_6)">
<g filter="url(#filter0_d_130_6)">
<path d="M7.5 0C3.35714 0 0 3.42233 0 7.64563C0 16.8689 7.5 25 7.5 25C7.5 25 15 16.7476 15 7.64563C15 3.42233 11.6429 0 7.5 0ZM7.5 11.7718C5.2619 11.7718 3.45238 9.92718 3.45238 7.64563C3.45238 5.36408 5.2619 3.51942 7.5 3.51942C9.7381 3.51942 11.5476 5.36408 11.5476 7.64563C11.5476 9.92718 9.7381 11.7718 7.5 11.7718Z" fill="white"/>
</g>
</g>
<defs>
<filter id="filter0_d_130_6" x="-4" y="0" width="23" height="33" filterUnits="userSpaceOnUse" color-interpolation-filters="sRGB">
<feFlood flood-opacity="0" result="BackgroundImageFix"/>
<feColorMatrix in="SourceAlpha" type="matrix" values="0 0 0 0 0 0 0 0 0 0 0 0 0 0 0 0 0 0 127 0" result="hardAlpha"/>
<feOffset dy="4"/>
<feGaussianBlur stdDeviation="2"/>
<feComposite in2="hardAlpha" operator="out"/>
<feColorMatrix type="matrix" values="0 0 0 0 0 0 0 0 0 0 0 0 0 0 0 0 0 0 0.25 0"/>
<feBlend mode="normal" in2="BackgroundImageFix" result="effect1_dropShadow_130_6"/>
<feBlend mode="normal" in="SourceGraphic" in2="effect1_dropShadow_130_6" result="shape"/>
</filter>
<clipPath id="clip0_130_6">
<rect width="15" height="25" fill="white"/>
</clipPath>
</defs>
</svg>
